<?xml version="1.0" encoding="UTF-8"?>
<svg xmlns="http://www.w3.org/2000/svg" xmlns:xlink="http://www.w3.org/1999/xlink" width="756pt" height="504pt" viewBox="0 0 756 504" version="1.1">
<g id="surface21759">
<rect x="0" y="0" width="756" height="504" style="fill:rgb(100%,100%,100%);fill-opacity:1;stroke:none;"/>
<path style="fill:none;stroke-width:10.669783;stroke-linecap:butt;stroke-linejoin:round;stroke:rgb(85.098039%,85.098039%,85.098039%);stroke-opacity:1;stroke-miterlimit:10;" d="M 280.085938 333.472656 L 282.917969 332.03125 L 288.582031 329.140625 L 291.417969 327.695312 L 294.25 326.25 L 297.082031 324.808594 L 299.914062 323.363281 L 302.75 321.917969 L 308.414062 319.027344 L 311.246094 317.585938 L 314.082031 316.140625 L 322.578125 311.804688 L 325.414062 310.363281 L 333.910156 306.027344 L 336.746094 304.585938 L 345.242188 300.25 L 348.078125 298.804688 L 350.910156 297.363281 L 356.574219 294.472656 L 359.410156 293.027344 L 362.242188 291.582031 L 365.074219 290.140625 L 367.90625 288.695312 L 370.742188 287.25 L 376.40625 284.359375 L 379.238281 282.917969 L 382.074219 281.472656 L 390.570312 277.136719 L 393.40625 275.695312 L 401.902344 271.359375 L 404.738281 269.917969 L 413.234375 265.582031 L 416.070312 264.136719 L 418.902344 262.695312 L 424.566406 259.804688 L 427.402344 258.359375 L 430.234375 256.914062 L 433.066406 255.472656 L 435.898438 254.027344 L 438.734375 252.582031 L 444.398438 249.691406 L 447.230469 248.25 L 450.066406 246.804688 L 455.730469 243.914062 L 458.5625 242.472656 L 461.398438 241.027344 L 469.894531 236.691406 L 472.730469 235.25 L 481.226562 230.914062 L 484.0625 229.46875 L 486.894531 228.027344 L 492.558594 225.136719 L 495.394531 223.691406 L 498.226562 222.246094 L 501.058594 220.804688 L 503.890625 219.359375 "/>
<path style="fill-rule:nonzero;fill:rgb(89.411765%,30.980392%,39.215686%);fill-opacity:0.501961;stroke-width:0.708661;stroke-linecap:round;stroke-linejoin:round;stroke:rgb(89.411765%,30.980392%,39.215686%);stroke-opacity:0.501961;stroke-miterlimit:10;" d="M 441.65625 22.910156 C 441.65625 34.890625 431.945312 44.601562 419.964844 44.601562 C 407.984375 44.601562 398.269531 34.890625 398.269531 22.910156 C 398.269531 10.929688 407.984375 1.214844 419.964844 1.214844 C 431.945312 1.214844 441.65625 10.929688 441.65625 22.910156 "/>
<path style="fill-rule:nonzero;fill:rgb(40.392157%,10.980392%,50.196078%);fill-opacity:0.501961;stroke-width:0.708661;stroke-linecap:round;stroke-linejoin:round;stroke:rgb(40.392157%,10.980392%,50.196078%);stroke-opacity:0.501961;stroke-miterlimit:10;" d="M 357.730469 128.707031 C 357.730469 140.6875 348.015625 150.402344 336.035156 150.402344 C 324.054688 150.402344 314.34375 140.6875 314.34375 128.707031 C 314.34375 116.726562 324.054688 107.015625 336.035156 107.015625 C 348.015625 107.015625 357.730469 116.726562 357.730469 128.707031 "/>
<path style="fill-rule:nonzero;fill:rgb(23.921569%,5.882353%,44.313725%);fill-opacity:0.501961;stroke-width:0.708661;stroke-linecap:round;stroke-linejoin:round;stroke:rgb(23.921569%,5.882353%,44.313725%);stroke-opacity:0.501961;stroke-miterlimit:10;" d="M 329.753906 406.914062 C 329.753906 418.894531 320.042969 428.605469 308.058594 428.605469 C 296.078125 428.605469 286.367188 418.894531 286.367188 406.914062 C 286.367188 394.933594 296.078125 385.21875 308.058594 385.21875 C 320.042969 385.21875 329.753906 394.933594 329.753906 406.914062 "/>
<path style="fill-rule:nonzero;fill:rgb(99.215686%,86.27451%,61.960784%);fill-opacity:0.501961;stroke-width:0.708661;stroke-linecap:round;stroke-linejoin:round;stroke:rgb(99.215686%,86.27451%,61.960784%);stroke-opacity:0.501961;stroke-miterlimit:10;" d="M 525.585938 274.960938 C 525.585938 286.941406 515.871094 296.65625 503.890625 296.65625 C 491.910156 296.65625 482.199219 286.941406 482.199219 274.960938 C 482.199219 262.980469 491.910156 253.265625 503.890625 253.265625 C 515.871094 253.265625 525.585938 262.980469 525.585938 274.960938 "/>
<path style="fill-rule:nonzero;fill:rgb(99.215686%,86.27451%,61.960784%);fill-opacity:0.501961;stroke-width:0.708661;stroke-linecap:round;stroke-linejoin:round;stroke:rgb(99.215686%,86.27451%,61.960784%);stroke-opacity:0.501961;stroke-miterlimit:10;" d="M 525.585938 274.960938 C 525.585938 286.941406 515.871094 296.65625 503.890625 296.65625 C 491.910156 296.65625 482.199219 286.941406 482.199219 274.960938 C 482.199219 262.980469 491.910156 253.265625 503.890625 253.265625 C 515.871094 253.265625 525.585938 262.980469 525.585938 274.960938 "/>
<path style="fill-rule:nonzero;fill:rgb(97.647059%,47.45098%,36.470588%);fill-opacity:0.501961;stroke-width:0.708661;stroke-linecap:round;stroke-linejoin:round;stroke:rgb(97.647059%,47.45098%,36.470588%);stroke-opacity:0.501961;stroke-miterlimit:10;" d="M 469.632812 170.363281 C 469.632812 182.34375 459.921875 192.058594 447.941406 192.058594 C 435.957031 192.058594 426.246094 182.34375 426.246094 170.363281 C 426.246094 158.382812 435.957031 148.667969 447.941406 148.667969 C 459.921875 148.667969 469.632812 158.382812 469.632812 170.363281 "/>
<path style="fill-rule:nonzero;fill:rgb(99.607843%,67.058824%,45.882353%);fill-opacity:0.501961;stroke-width:0.708661;stroke-linecap:round;stroke-linejoin:round;stroke:rgb(99.607843%,67.058824%,45.882353%);stroke-opacity:0.501961;stroke-miterlimit:10;" d="M 497.609375 383.816406 C 497.609375 395.796875 487.898438 405.511719 475.914062 405.511719 C 463.933594 405.511719 454.222656 395.796875 454.222656 383.816406 C 454.222656 371.835938 463.933594 362.121094 475.914062 362.121094 C 487.898438 362.121094 497.609375 371.835938 497.609375 383.816406 "/>
<path style="fill-rule:nonzero;fill:rgb(8.235294%,5.490196%,21.568627%);fill-opacity:0.501961;stroke-width:0.708661;stroke-linecap:round;stroke-linejoin:round;stroke:rgb(8.235294%,5.490196%,21.568627%);stroke-opacity:0.501961;stroke-miterlimit:10;" d="M 301.777344 481.089844 C 301.777344 493.070312 292.066406 502.785156 280.085938 502.785156 C 268.101562 502.785156 258.390625 493.070312 258.390625 481.089844 C 258.390625 469.109375 268.101562 459.398438 280.085938 459.398438 C 292.066406 459.398438 301.777344 469.109375 301.777344 481.089844 "/>
<path style="fill-rule:nonzero;fill:rgb(73.72549%,22.352941%,47.058824%);fill-opacity:0.501961;stroke-width:0.708661;stroke-linecap:round;stroke-linejoin:round;stroke:rgb(73.72549%,22.352941%,47.058824%);stroke-opacity:0.501961;stroke-miterlimit:10;" d="M 413.683594 272.703125 C 413.683594 284.683594 403.96875 294.398438 391.988281 294.398438 C 380.007812 294.398438 370.292969 284.683594 370.292969 272.703125 C 370.292969 260.722656 380.007812 251.007812 391.988281 251.007812 C 403.96875 251.007812 413.683594 260.722656 413.683594 272.703125 "/>
</g>
</svg>
