<?xml version="1.0" encoding="UTF-8"?>
<svg xmlns="http://www.w3.org/2000/svg" xmlns:xlink="http://www.w3.org/1999/xlink" width="756pt" height="504pt" viewBox="0 0 756 504" version="1.1">
<g id="surface21839">
<rect x="0" y="0" width="756" height="504" style="fill:rgb(100%,100%,100%);fill-opacity:1;stroke:none;"/>
<path style="fill:none;stroke-width:10.669783;stroke-linecap:butt;stroke-linejoin:round;stroke:rgb(85.098039%,85.098039%,85.098039%);stroke-opacity:1;stroke-miterlimit:10;" d="M 301.71875 122.402344 L 305.578125 126.113281 L 313.304688 133.535156 L 317.167969 137.25 L 321.03125 140.960938 L 324.890625 144.671875 L 332.617188 152.09375 L 336.480469 155.808594 L 340.339844 159.519531 L 351.929688 170.652344 L 355.792969 174.367188 L 359.652344 178.078125 L 371.242188 189.210938 L 375.101562 192.925781 L 390.554688 207.769531 L 394.414062 211.480469 L 398.277344 215.195312 L 406.003906 222.617188 L 409.863281 226.328125 L 413.726562 230.039062 L 417.589844 233.753906 L 421.453125 237.464844 L 425.3125 241.175781 L 433.039062 248.597656 L 436.902344 252.3125 L 440.765625 256.023438 L 444.625 259.734375 L 452.351562 267.15625 L 456.214844 270.871094 L 460.074219 274.582031 L 475.527344 289.425781 L 479.386719 293.140625 L 490.976562 304.273438 L 494.835938 307.984375 L 498.699219 311.699219 L 510.289062 322.832031 L 514.148438 326.542969 L 518.011719 330.257812 L 525.738281 337.679688 L 529.597656 341.390625 L 533.460938 345.101562 L 537.324219 348.816406 L 541.1875 352.527344 L 545.046875 356.238281 L 556.636719 367.371094 L 560.5 371.085938 L 564.359375 374.796875 L 575.949219 385.929688 L 579.808594 389.644531 L 595.261719 404.488281 L 599.121094 408.203125 L 606.847656 415.625 "/>
<path style="fill-rule:nonzero;fill:rgb(40.392157%,10.980392%,50.196078%);fill-opacity:0.501961;stroke-width:0.708661;stroke-linecap:round;stroke-linejoin:round;stroke:rgb(40.392157%,10.980392%,50.196078%);stroke-opacity:0.501961;stroke-miterlimit:10;" d="M 323.410156 215.230469 C 323.410156 227.210938 313.699219 236.925781 301.71875 236.925781 C 289.738281 236.925781 280.023438 227.210938 280.023438 215.230469 C 280.023438 203.25 289.738281 193.539062 301.71875 193.539062 C 313.699219 193.539062 323.410156 203.25 323.410156 215.230469 "/>
<path style="fill-rule:nonzero;fill:rgb(99.215686%,86.27451%,61.960784%);fill-opacity:0.501961;stroke-width:0.708661;stroke-linecap:round;stroke-linejoin:round;stroke:rgb(99.215686%,86.27451%,61.960784%);stroke-opacity:0.501961;stroke-miterlimit:10;" d="M 628.539062 481.089844 C 628.539062 493.070312 618.828125 502.785156 606.847656 502.785156 C 594.867188 502.785156 585.152344 493.070312 585.152344 481.089844 C 585.152344 469.109375 594.867188 459.398438 606.847656 459.398438 C 618.828125 459.398438 628.539062 469.109375 628.539062 481.089844 "/>
<path style="fill-rule:nonzero;fill:rgb(99.215686%,86.27451%,61.960784%);fill-opacity:0.501961;stroke-width:0.708661;stroke-linecap:round;stroke-linejoin:round;stroke:rgb(99.215686%,86.27451%,61.960784%);stroke-opacity:0.501961;stroke-miterlimit:10;" d="M 628.539062 481.089844 C 628.539062 493.070312 618.828125 502.785156 606.847656 502.785156 C 594.867188 502.785156 585.152344 493.070312 585.152344 481.089844 C 585.152344 469.109375 594.867188 459.398438 606.847656 459.398438 C 618.828125 459.398438 628.539062 469.109375 628.539062 481.089844 "/>
<path style="fill-rule:nonzero;fill:rgb(97.647059%,47.45098%,36.470588%);fill-opacity:0.501961;stroke-width:0.708661;stroke-linecap:round;stroke-linejoin:round;stroke:rgb(97.647059%,47.45098%,36.470588%);stroke-opacity:0.501961;stroke-miterlimit:10;" d="M 526.832031 290.953125 C 526.832031 302.933594 517.117188 312.644531 505.136719 312.644531 C 493.15625 312.644531 483.445312 302.933594 483.445312 290.953125 C 483.445312 278.972656 493.15625 269.257812 505.136719 269.257812 C 517.117188 269.257812 526.832031 278.972656 526.832031 290.953125 "/>
<path style="fill-rule:nonzero;fill:rgb(89.411765%,30.980392%,39.215686%);fill-opacity:0.501961;stroke-width:0.708661;stroke-linecap:round;stroke-linejoin:round;stroke:rgb(89.411765%,30.980392%,39.215686%);stroke-opacity:0.501961;stroke-miterlimit:10;" d="M 475.976562 22.910156 C 475.976562 34.890625 466.261719 44.601562 454.28125 44.601562 C 442.300781 44.601562 432.589844 34.890625 432.589844 22.910156 C 432.589844 10.929688 442.300781 1.214844 454.28125 1.214844 C 466.261719 1.214844 475.976562 10.929688 475.976562 22.910156 "/>
<path style="fill-rule:nonzero;fill:rgb(99.215686%,86.27451%,61.960784%);fill-opacity:0.501961;stroke-width:0.708661;stroke-linecap:round;stroke-linejoin:round;stroke:rgb(99.215686%,86.27451%,61.960784%);stroke-opacity:0.501961;stroke-miterlimit:10;" d="M 628.539062 481.089844 C 628.539062 493.070312 618.828125 502.785156 606.847656 502.785156 C 594.867188 502.785156 585.152344 493.070312 585.152344 481.089844 C 585.152344 469.109375 594.867188 459.398438 606.847656 459.398438 C 618.828125 459.398438 628.539062 469.109375 628.539062 481.089844 "/>
<path style="fill-rule:nonzero;fill:rgb(89.411765%,30.980392%,39.215686%);fill-opacity:0.501961;stroke-width:0.708661;stroke-linecap:round;stroke-linejoin:round;stroke:rgb(89.411765%,30.980392%,39.215686%);stroke-opacity:0.501961;stroke-miterlimit:10;" d="M 475.976562 22.910156 C 475.976562 34.890625 466.261719 44.601562 454.28125 44.601562 C 442.300781 44.601562 432.589844 34.890625 432.589844 22.910156 C 432.589844 10.929688 442.300781 1.214844 454.28125 1.214844 C 466.261719 1.214844 475.976562 10.929688 475.976562 22.910156 "/>
<path style="fill-rule:nonzero;fill:rgb(97.647059%,47.45098%,36.470588%);fill-opacity:0.501961;stroke-width:0.708661;stroke-linecap:round;stroke-linejoin:round;stroke:rgb(97.647059%,47.45098%,36.470588%);stroke-opacity:0.501961;stroke-miterlimit:10;" d="M 526.832031 290.953125 C 526.832031 302.933594 517.117188 312.644531 505.136719 312.644531 C 493.15625 312.644531 483.445312 302.933594 483.445312 290.953125 C 483.445312 278.972656 493.15625 269.257812 505.136719 269.257812 C 517.117188 269.257812 526.832031 278.972656 526.832031 290.953125 "/>
<path style="fill-rule:nonzero;fill:rgb(73.72549%,22.352941%,47.058824%);fill-opacity:0.501961;stroke-width:0.708661;stroke-linecap:round;stroke-linejoin:round;stroke:rgb(73.72549%,22.352941%,47.058824%);stroke-opacity:0.501961;stroke-miterlimit:10;" d="M 425.121094 476.988281 C 425.121094 488.96875 415.410156 498.679688 403.425781 498.679688 C 391.445312 498.679688 381.734375 488.96875 381.734375 476.988281 C 381.734375 465.003906 391.445312 455.292969 403.425781 455.292969 C 415.410156 455.292969 425.121094 465.003906 425.121094 476.988281 "/>
</g>
</svg>
