<?xml version="1.0" encoding="UTF-8"?>
<svg xmlns="http://www.w3.org/2000/svg" xmlns:xlink="http://www.w3.org/1999/xlink" width="756pt" height="504pt" viewBox="0 0 756 504" version="1.1">
<g id="surface8469">
<rect x="0" y="0" width="756" height="504" style="fill:rgb(100%,100%,100%);fill-opacity:1;stroke:none;"/>
<path style="fill:none;stroke-width:10.669783;stroke-linecap:butt;stroke-linejoin:round;stroke:rgb(85.098039%,85.098039%,85.098039%);stroke-opacity:1;stroke-miterlimit:10;" d="M 250.6875 273.632812 L 253.910156 273.667969 L 260.355469 273.730469 L 263.578125 273.765625 L 266.800781 273.796875 L 270.023438 273.832031 L 273.246094 273.863281 L 276.472656 273.898438 L 279.695312 273.929688 L 282.917969 273.964844 L 289.363281 274.027344 L 292.585938 274.0625 L 295.808594 274.09375 L 299.03125 274.128906 L 302.257812 274.160156 L 305.480469 274.195312 L 308.703125 274.226562 L 311.925781 274.261719 L 315.148438 274.292969 L 318.371094 274.328125 L 324.816406 274.390625 L 328.042969 274.425781 L 331.265625 274.457031 L 334.488281 274.492188 L 337.710938 274.523438 L 340.933594 274.558594 L 344.15625 274.589844 L 347.378906 274.625 L 350.601562 274.65625 L 353.828125 274.6875 L 357.050781 274.722656 L 360.273438 274.753906 L 363.496094 274.789062 L 366.71875 274.820312 L 369.941406 274.855469 L 373.164062 274.886719 L 376.386719 274.921875 L 379.613281 274.953125 L 382.835938 274.984375 L 386.058594 275.019531 L 389.28125 275.050781 L 392.503906 275.085938 L 395.726562 275.117188 L 398.949219 275.152344 L 402.171875 275.183594 L 405.398438 275.21875 L 408.621094 275.25 L 411.84375 275.285156 L 418.289062 275.347656 L 421.511719 275.382812 L 424.734375 275.414062 L 427.957031 275.449219 L 431.183594 275.480469 L 434.40625 275.515625 L 437.628906 275.546875 L 440.851562 275.582031 L 447.296875 275.644531 L 450.519531 275.679688 L 453.742188 275.710938 L 456.96875 275.746094 L 460.191406 275.777344 L 463.414062 275.8125 L 466.636719 275.84375 L 469.859375 275.878906 L 476.304688 275.941406 L 479.527344 275.976562 L 482.753906 276.007812 L 485.976562 276.042969 L 489.199219 276.074219 L 492.421875 276.109375 L 495.644531 276.140625 L 498.867188 276.175781 L 502.089844 276.207031 L 505.3125 276.242188 "/>
<path style="fill-rule:nonzero;fill:rgb(16.078431%,6.666667%,35.294118%);fill-opacity:0.501961;stroke-width:0.708661;stroke-linecap:round;stroke-linejoin:round;stroke:rgb(16.078431%,6.666667%,35.294118%);stroke-opacity:0.501961;stroke-miterlimit:10;" d="M 308.753906 384.640625 C 308.753906 396.621094 299.042969 406.335938 287.0625 406.335938 C 275.082031 406.335938 265.367188 396.621094 265.367188 384.640625 C 265.367188 372.660156 275.082031 362.949219 287.0625 362.949219 C 299.042969 362.949219 308.753906 372.660156 308.753906 384.640625 "/>
<path style="fill-rule:nonzero;fill:rgb(33.72549%,7.843137%,49.019608%);fill-opacity:0.501961;stroke-width:0.708661;stroke-linecap:round;stroke-linejoin:round;stroke:rgb(33.72549%,7.843137%,49.019608%);stroke-opacity:0.501961;stroke-miterlimit:10;" d="M 345.128906 22.910156 C 345.128906 34.890625 335.417969 44.601562 323.4375 44.601562 C 311.457031 44.601562 301.742188 34.890625 301.742188 22.910156 C 301.742188 10.929688 311.457031 1.214844 323.4375 1.214844 C 335.417969 1.214844 345.128906 10.929688 345.128906 22.910156 "/>
<path style="fill-rule:nonzero;fill:rgb(67.058824%,20%,48.627451%);fill-opacity:0.501961;stroke-width:0.708661;stroke-linecap:round;stroke-linejoin:round;stroke:rgb(67.058824%,20%,48.627451%);stroke-opacity:0.501961;stroke-miterlimit:10;" d="M 417.882812 210.136719 C 417.882812 222.117188 408.167969 231.832031 396.1875 231.832031 C 384.207031 231.832031 374.492188 222.117188 374.492188 210.136719 C 374.492188 198.15625 384.207031 188.441406 396.1875 188.441406 C 408.167969 188.441406 417.882812 198.15625 417.882812 210.136719 "/>
<path style="fill-rule:nonzero;fill:rgb(33.72549%,7.843137%,49.019608%);fill-opacity:0.501961;stroke-width:0.708661;stroke-linecap:round;stroke-linejoin:round;stroke:rgb(33.72549%,7.843137%,49.019608%);stroke-opacity:0.501961;stroke-miterlimit:10;" d="M 345.128906 22.910156 C 345.128906 34.890625 335.417969 44.601562 323.4375 44.601562 C 311.457031 44.601562 301.742188 34.890625 301.742188 22.910156 C 301.742188 10.929688 311.457031 1.214844 323.4375 1.214844 C 335.417969 1.214844 345.128906 10.929688 345.128906 22.910156 "/>
<path style="fill-rule:nonzero;fill:rgb(99.215686%,61.176471%,41.960784%);fill-opacity:0.501961;stroke-width:0.708661;stroke-linecap:round;stroke-linejoin:round;stroke:rgb(99.215686%,61.176471%,41.960784%);stroke-opacity:0.501961;stroke-miterlimit:10;" d="M 527.007812 354.609375 C 527.007812 366.59375 517.296875 376.304688 505.3125 376.304688 C 493.332031 376.304688 483.621094 366.59375 483.621094 354.609375 C 483.621094 342.628906 493.332031 332.917969 505.3125 332.917969 C 517.296875 332.917969 527.007812 342.628906 527.007812 354.609375 "/>
<path style="fill-rule:nonzero;fill:rgb(2.745098%,2.352941%,10.588235%);fill-opacity:0.501961;stroke-width:0.708661;stroke-linecap:round;stroke-linejoin:round;stroke:rgb(2.745098%,2.352941%,10.588235%);stroke-opacity:0.501961;stroke-miterlimit:10;" d="M 272.378906 481.089844 C 272.378906 493.070312 262.667969 502.785156 250.6875 502.785156 C 238.703125 502.785156 228.992188 493.070312 228.992188 481.089844 C 228.992188 469.109375 238.703125 459.398438 250.6875 459.398438 C 262.667969 459.398438 272.378906 469.109375 272.378906 481.089844 "/>
<path style="fill-rule:nonzero;fill:rgb(50.196078%,14.509804%,50.980392%);fill-opacity:0.501961;stroke-width:0.708661;stroke-linecap:round;stroke-linejoin:round;stroke:rgb(50.196078%,14.509804%,50.980392%);stroke-opacity:0.501961;stroke-miterlimit:10;" d="M 381.507812 257.203125 C 381.507812 269.183594 371.792969 278.898438 359.8125 278.898438 C 347.832031 278.898438 338.117188 269.183594 338.117188 257.203125 C 338.117188 245.222656 347.832031 235.507812 359.8125 235.507812 C 371.792969 235.507812 381.507812 245.222656 381.507812 257.203125 "/>
<path style="fill-rule:nonzero;fill:rgb(99.215686%,61.176471%,41.960784%);fill-opacity:0.501961;stroke-width:0.708661;stroke-linecap:round;stroke-linejoin:round;stroke:rgb(99.215686%,61.176471%,41.960784%);stroke-opacity:0.501961;stroke-miterlimit:10;" d="M 527.007812 354.609375 C 527.007812 366.59375 517.296875 376.304688 505.3125 376.304688 C 493.332031 376.304688 483.621094 366.59375 483.621094 354.609375 C 483.621094 342.628906 493.332031 332.917969 505.3125 332.917969 C 517.296875 332.917969 527.007812 342.628906 527.007812 354.609375 "/>
<path style="fill-rule:nonzero;fill:rgb(16.078431%,6.666667%,35.294118%);fill-opacity:0.501961;stroke-width:0.708661;stroke-linecap:round;stroke-linejoin:round;stroke:rgb(16.078431%,6.666667%,35.294118%);stroke-opacity:0.501961;stroke-miterlimit:10;" d="M 308.753906 384.640625 C 308.753906 396.621094 299.042969 406.335938 287.0625 406.335938 C 275.082031 406.335938 265.367188 396.621094 265.367188 384.640625 C 265.367188 372.660156 275.082031 362.949219 287.0625 362.949219 C 299.042969 362.949219 308.753906 372.660156 308.753906 384.640625 "/>
</g>
</svg>
