<?xml version="1.0" encoding="UTF-8"?>
<svg xmlns="http://www.w3.org/2000/svg" xmlns:xlink="http://www.w3.org/1999/xlink" width="756pt" height="504pt" viewBox="0 0 756 504" version="1.1">
<g id="surface21779">
<rect x="0" y="0" width="756" height="504" style="fill:rgb(100%,100%,100%);fill-opacity:1;stroke:none;"/>
<path style="fill:none;stroke-width:10.669783;stroke-linecap:butt;stroke-linejoin:round;stroke:rgb(85.098039%,85.098039%,85.098039%);stroke-opacity:1;stroke-miterlimit:10;" d="M 262.8125 371.246094 L 268.648438 363.441406 L 271.5625 359.539062 L 274.480469 355.636719 L 277.394531 351.734375 L 280.3125 347.832031 L 283.226562 343.929688 L 286.144531 340.027344 L 289.058594 336.121094 L 291.976562 332.21875 L 294.890625 328.316406 L 297.808594 324.414062 L 300.722656 320.511719 L 303.640625 316.609375 L 306.554688 312.707031 L 309.472656 308.804688 L 312.386719 304.902344 L 315.304688 301 L 318.21875 297.097656 L 321.136719 293.195312 L 324.050781 289.292969 L 326.96875 285.390625 L 329.882812 281.488281 L 332.800781 277.582031 L 335.714844 273.679688 L 341.550781 265.875 L 344.464844 261.972656 L 347.382812 258.070312 L 350.296875 254.167969 L 353.214844 250.265625 L 356.128906 246.363281 L 359.046875 242.460938 L 361.960938 238.558594 L 364.878906 234.65625 L 367.792969 230.753906 L 370.710938 226.851562 L 373.625 222.949219 L 376.542969 219.042969 L 379.457031 215.140625 L 382.375 211.238281 L 385.289062 207.335938 L 388.207031 203.433594 L 391.121094 199.53125 L 394.039062 195.628906 L 396.953125 191.726562 L 399.871094 187.824219 L 402.785156 183.921875 L 405.703125 180.019531 L 408.617188 176.117188 L 411.535156 172.214844 L 414.449219 168.3125 L 417.367188 164.40625 L 420.285156 160.503906 L 423.199219 156.601562 L 426.117188 152.699219 L 429.03125 148.796875 L 431.949219 144.894531 L 434.863281 140.992188 L 437.78125 137.089844 L 440.695312 133.1875 L 443.613281 129.285156 L 446.527344 125.382812 L 449.445312 121.480469 L 452.359375 117.578125 L 455.277344 113.675781 L 458.191406 109.773438 L 461.109375 105.867188 L 464.023438 101.964844 L 466.941406 98.0625 L 469.855469 94.160156 L 472.773438 90.257812 L 475.6875 86.355469 L 478.605469 82.453125 L 481.519531 78.550781 L 484.4375 74.648438 L 487.351562 70.746094 L 493.1875 62.941406 "/>
<path style="fill-rule:nonzero;fill:rgb(97.647059%,47.45098%,36.470588%);fill-opacity:0.501961;stroke-width:0.708661;stroke-linecap:round;stroke-linejoin:round;stroke:rgb(97.647059%,47.45098%,36.470588%);stroke-opacity:0.501961;stroke-miterlimit:10;" d="M 514.878906 91.511719 C 514.878906 103.492188 505.167969 113.207031 493.1875 113.207031 C 481.203125 113.207031 471.492188 103.492188 471.492188 91.511719 C 471.492188 79.53125 481.203125 69.816406 493.1875 69.816406 C 505.167969 69.816406 514.878906 79.53125 514.878906 91.511719 "/>
<path style="fill-rule:nonzero;fill:rgb(23.921569%,5.882353%,44.313725%);fill-opacity:0.501961;stroke-width:0.708661;stroke-linecap:round;stroke-linejoin:round;stroke:rgb(23.921569%,5.882353%,44.313725%);stroke-opacity:0.501961;stroke-miterlimit:10;" d="M 284.507812 481.089844 C 284.507812 493.070312 274.796875 502.785156 262.8125 502.785156 C 250.832031 502.785156 241.121094 493.070312 241.121094 481.089844 C 241.121094 469.109375 250.832031 459.398438 262.8125 459.398438 C 274.796875 459.398438 284.507812 469.109375 284.507812 481.089844 "/>
<path style="fill-rule:nonzero;fill:rgb(40.392157%,10.980392%,50.196078%);fill-opacity:0.501961;stroke-width:0.708661;stroke-linecap:round;stroke-linejoin:round;stroke:rgb(40.392157%,10.980392%,50.196078%);stroke-opacity:0.501961;stroke-miterlimit:10;" d="M 330.582031 22.910156 C 330.582031 34.890625 320.871094 44.601562 308.886719 44.601562 C 296.90625 44.601562 287.195312 34.890625 287.195312 22.910156 C 287.195312 10.929688 296.90625 1.214844 308.886719 1.214844 C 320.871094 1.214844 330.582031 10.929688 330.582031 22.910156 "/>
<path style="fill-rule:nonzero;fill:rgb(40.392157%,10.980392%,50.196078%);fill-opacity:0.501961;stroke-width:0.708661;stroke-linecap:round;stroke-linejoin:round;stroke:rgb(40.392157%,10.980392%,50.196078%);stroke-opacity:0.501961;stroke-miterlimit:10;" d="M 330.582031 22.910156 C 330.582031 34.890625 320.871094 44.601562 308.886719 44.601562 C 296.90625 44.601562 287.195312 34.890625 287.195312 22.910156 C 287.195312 10.929688 296.90625 1.214844 308.886719 1.214844 C 320.871094 1.214844 330.582031 10.929688 330.582031 22.910156 "/>
<path style="fill-rule:nonzero;fill:rgb(23.921569%,5.882353%,44.313725%);fill-opacity:0.501961;stroke-width:0.708661;stroke-linecap:round;stroke-linejoin:round;stroke:rgb(23.921569%,5.882353%,44.313725%);stroke-opacity:0.501961;stroke-miterlimit:10;" d="M 284.507812 481.089844 C 284.507812 493.070312 274.796875 502.785156 262.8125 502.785156 C 250.832031 502.785156 241.121094 493.070312 241.121094 481.089844 C 241.121094 469.109375 250.832031 459.398438 262.8125 459.398438 C 274.796875 459.398438 284.507812 469.109375 284.507812 481.089844 "/>
<path style="fill-rule:nonzero;fill:rgb(56.862745%,16.862745%,50.588235%);fill-opacity:0.501961;stroke-width:0.708661;stroke-linecap:round;stroke-linejoin:round;stroke:rgb(56.862745%,16.862745%,50.588235%);stroke-opacity:0.501961;stroke-miterlimit:10;" d="M 376.65625 319.671875 C 376.65625 331.65625 366.945312 341.367188 354.960938 341.367188 C 342.980469 341.367188 333.269531 331.65625 333.269531 319.671875 C 333.269531 307.691406 342.980469 297.980469 354.960938 297.980469 C 366.945312 297.980469 376.65625 307.691406 376.65625 319.671875 "/>
<path style="fill-rule:nonzero;fill:rgb(56.862745%,16.862745%,50.588235%);fill-opacity:0.501961;stroke-width:0.708661;stroke-linecap:round;stroke-linejoin:round;stroke:rgb(56.862745%,16.862745%,50.588235%);stroke-opacity:0.501961;stroke-miterlimit:10;" d="M 376.65625 319.671875 C 376.65625 331.65625 366.945312 341.367188 354.960938 341.367188 C 342.980469 341.367188 333.269531 331.65625 333.269531 319.671875 C 333.269531 307.691406 342.980469 297.980469 354.960938 297.980469 C 366.945312 297.980469 376.65625 307.691406 376.65625 319.671875 "/>
<path style="fill-rule:nonzero;fill:rgb(56.862745%,16.862745%,50.588235%);fill-opacity:0.501961;stroke-width:0.708661;stroke-linecap:round;stroke-linejoin:round;stroke:rgb(56.862745%,16.862745%,50.588235%);stroke-opacity:0.501961;stroke-miterlimit:10;" d="M 376.65625 319.671875 C 376.65625 331.65625 366.945312 341.367188 354.960938 341.367188 C 342.980469 341.367188 333.269531 331.65625 333.269531 319.671875 C 333.269531 307.691406 342.980469 297.980469 354.960938 297.980469 C 366.945312 297.980469 376.65625 307.691406 376.65625 319.671875 "/>
<path style="fill-rule:nonzero;fill:rgb(23.921569%,5.882353%,44.313725%);fill-opacity:0.501961;stroke-width:0.708661;stroke-linecap:round;stroke-linejoin:round;stroke:rgb(23.921569%,5.882353%,44.313725%);stroke-opacity:0.501961;stroke-miterlimit:10;" d="M 284.507812 481.089844 C 284.507812 493.070312 274.796875 502.785156 262.8125 502.785156 C 250.832031 502.785156 241.121094 493.070312 241.121094 481.089844 C 241.121094 469.109375 250.832031 459.398438 262.8125 459.398438 C 274.796875 459.398438 284.507812 469.109375 284.507812 481.089844 "/>
</g>
</svg>
